<?xml version="1.0" encoding="UTF-8"?>
<svg version="1.1" xmlns="http://www.w3.org/2000/svg" width="523" height="502">
<path d="M0 0 C172.59 0 345.18 0 523 0 C523 165.66 523 331.32 523 502 C350.41 502 177.82 502 0 502 C0 336.34 0 170.68 0 0 Z " fill="#39A5D9" transform="translate(0,0)"/>
<path d="M0 0 C5.16394778 0.22776737 10.32644748 0.4703976 15.48828125 0.7421875 C18.67832761 0.9063371 21.84892305 1.02270316 25.04296875 1.0078125 C32.80388215 1.13518974 32.80388215 1.13518974 35.91796875 3.38671875 C37.77568297 5.49153984 39.35564923 7.72427405 41 10 C42.84279803 12.1330137 44.76319978 14.19055948 46.6875 16.25 C47.19829102 16.80357178 47.70908203 17.35714355 48.23535156 17.92749023 C52.7267401 22.77452855 57.38882961 27.4317567 62.11328125 32.05078125 C64.26174342 34.19331867 66.25539023 36.42746138 68.23046875 38.73046875 C72.56757403 43.74111492 77.28132647 48.35175443 82 53 C87.28999262 58.21103751 92.45933209 63.42824821 97.29345703 69.06640625 C100.35136352 72.53115867 103.65022644 75.75466418 106.9375 79 C107.62134766 79.67933594 108.30519531 80.35867187 109.00976562 81.05859375 C110.67087159 82.70808359 112.33428513 84.3551668 114 86 C112.20869438 89.89775312 109.7320788 92.36838193 106.5625 95.1875 C106.02826416 95.67017334 105.49402832 96.15284668 104.94360352 96.65014648 C100.65039244 100.49737547 96.20541626 104.13954301 91.71484375 107.75390625 C88.89326505 110.0883059 86.19409288 112.51990598 83.5 115 C79.12695905 119.02097409 74.61900842 122.80189519 70 126.53515625 C64.55500096 131.00884686 59.26804251 135.66619339 53.95703125 140.29736328 C52.00707098 141.99384818 50.05147887 143.68358247 48.09375 145.37109375 C41.45340098 151.097818 34.8806376 156.87785627 28.4140625 162.80078125 C25.6531414 165.31598931 22.84613252 167.77278871 20.02734375 170.22265625 C17.66510827 172.29359487 15.33204147 174.39512848 13 176.5 C5.60299656 183.17534456 5.60299656 183.17534456 2.10888672 186.06274414 C-0.06589202 187.93761283 -0.06589202 187.93761283 -1.69482422 190.29077148 C-4.87895883 194.12935738 -7.61803901 196.5539195 -12.53723145 197.47515869 C-20.05822063 198.14128148 -27.59036257 197.81790236 -35.125 197.5625 C-37.4400264 197.51730742 -39.75513746 197.47625126 -42.0703125 197.43945312 C-47.71540259 197.34076635 -53.35730489 197.19059979 -59 197 C-51.0157219 188.98392537 -42.70720556 181.46666001 -33.90234375 174.3671875 C-30.61994194 171.69001994 -27.39893485 168.94902369 -24.1875 166.1875 C-23.59928467 165.6817041 -23.01106934 165.1759082 -22.4050293 164.65478516 C-21.20397171 163.62110813 -20.00320856 162.58708889 -18.80273438 161.55273438 C5.43542667 140.67587844 5.43542667 140.67587844 15.625 132.4375 C20.32711755 128.61447399 24.78810557 124.57552731 29.24609375 120.47265625 C32.83207284 117.25290481 36.56701492 114.24094824 40.31640625 111.21484375 C42.94708557 109.04367173 45.47942424 106.79758643 48 104.5 C52.28621542 100.59357582 56.73031614 96.93139907 61.23828125 93.28515625 C65.61706191 89.66197848 69.81306622 85.84180691 74 82 C72.48931298 80.48931298 71.02895545 80.70348886 68.92114258 80.5012207 C24.16246528 75.87711011 24.16246528 75.87711011 9.4387207 58.5949707 C4 51.74834802 4 51.74834802 4 49 C3.01 48.67 2.02 48.34 1 48 C-0.71875 46.2578125 -0.71875 46.2578125 -2.5 44.125 C-4.90697993 41.22570468 -4.90697993 41.22570468 -7.61547852 38.6237793 C-9 37 -9 37 -8.87109375 33.01171875 C-8.0484774 27.49672911 -6.58318202 22.16953091 -5.0625 16.8125 C-4.79759766 15.85408203 -4.53269531 14.89566406 -4.25976562 13.90820312 C-2.95644722 9.22854622 -1.59682115 4.58989655 0 0 Z " fill="#020203" transform="translate(268,145)"/>
<path d="M0 0 C9.24130699 -0.74141786 17.41902485 4.0705059 25.56616211 7.88427734 C27.1531917 8.60882256 28.74107746 9.33149552 30.32983398 10.05224609 C34.18965771 11.80814919 38.03699601 13.58901702 41.87866211 15.38427734 C41.75676514 16.09825684 41.63486816 16.81223633 41.50927734 17.54785156 C41.34113525 18.54316895 41.17299316 19.53848633 40.99975586 20.56396484 C40.81396973 21.66192383 40.62818359 22.75988281 40.43676758 23.89111328 C40.07755938 26.13938574 39.74856392 28.39280216 39.45727539 30.65087891 C36.9862512 49.79050385 36.9862512 49.79050385 32.20581055 55.31884766 C27.90898506 58.61489354 22.94870684 60.3852195 17.8972168 62.22021484 C12.70174799 64.22377318 7.76504016 66.7636611 2.77783203 69.23178101 C0.32376588 70.43765131 -2.14431434 71.61318953 -4.61248779 72.7898407 C-10.47400565 75.58687189 -16.28714784 78.46445189 -22.06665039 81.42724609 C-22.71007889 81.75558441 -23.35350739 82.08392273 -24.01643372 82.42221069 C-27.11403758 84.00300184 -30.20523066 85.59433283 -33.28710938 87.20556641 C-34.38869385 87.76856445 -35.49027832 88.3315625 -36.62524414 88.91162109 C-38.0765271 89.66560181 -38.0765271 89.66560181 -39.55712891 90.43481445 C-42.12133789 91.38427734 -42.12133789 91.38427734 -44.22338867 91.25976562 C-46.63950594 90.14525617 -48.11609764 88.74464503 -49.98461914 86.84912109 C-50.70713867 86.12144531 -51.4296582 85.39376953 -52.17407227 84.64404297 C-52.91979492 83.87769531 -53.66551758 83.11134766 -54.43383789 82.32177734 C-55.16795898 81.5825 -55.90208008 80.84322266 -56.65844727 80.08154297 C-60.10587885 76.58516825 -63.46014354 73.04335274 -66.66821289 69.32568359 C-70.2743958 65.14686058 -74.13240433 61.26061901 -78.05883789 57.38427734 C-78.74268555 56.70494141 -79.4265332 56.02560547 -80.13110352 55.32568359 C-81.79220948 53.67619375 -83.45562302 52.02911054 -85.12133789 50.38427734 C-83.73375609 47.24548353 -82.12610382 45.16172939 -79.67211914 42.77490234 C-78.98827148 42.10201172 -78.30442383 41.42912109 -77.59985352 40.73583984 C-76.88506836 40.04232422 -76.1702832 39.34880859 -75.43383789 38.63427734 C-70.64049268 33.96087683 -66.03508675 29.23367586 -61.66894531 24.15673828 C-59.75072296 21.95981538 -57.71413012 19.91459816 -55.62133789 17.88427734 C-52.05099273 14.36284103 -48.69677711 10.72228976 -45.43383789 6.91552734 C-42.47034116 3.45811449 -39.01899548 3.84124811 -34.66040039 3.41162109 C-33.36989273 3.28056725 -33.36989273 3.28056725 -32.05331421 3.14686584 C-30.22253421 2.96229465 -28.39152062 2.78002844 -26.56030273 2.59985352 C-23.79209716 2.32629928 -21.0251016 2.04234917 -18.25805664 1.75732422 C-13.93422755 1.31759782 -9.60818089 0.9295094 -5.27664185 0.57415771 C-3.51420572 0.41888865 -1.75600477 0.21618706 0 0 Z " fill="#020203" transform="translate(425.121337890625,116.61572265625)"/>
<path d="M0 0 C9.69805017 1.66945673 19.31253111 3.70981921 28.9375 5.75 C30.64809475 6.11149105 32.35870696 6.47289947 34.06933594 6.83422852 C44.70467952 9.08244029 55.33837469 11.33875962 65.96435547 13.63085938 C72.3256944 15.00278598 78.69016928 16.35737101 85.05929565 17.69264221 C88.93038638 18.50505636 92.80037912 19.32263291 96.67028809 20.14065552 C98.58898932 20.5448963 100.5081768 20.94683638 102.42785645 21.34640503 C105.1211626 21.90729029 107.81265443 22.47622618 110.50390625 23.046875 C111.31817581 23.21435745 112.13244537 23.3818399 112.97138977 23.55439758 C116.49835835 24.30969202 118.96553163 24.97702109 122 27 C115.49168828 33.07669594 108.91928132 38.96759167 101.98046875 44.5546875 C98.42709981 47.47003344 94.96265407 50.47799995 91.5 53.5 C87.11796234 57.32326173 82.70939906 61.09154701 78.1875 64.75 C74.69764112 67.57487839 71.31989486 70.47717579 68 73.5 C63.81023971 77.31485238 59.47887237 80.90216386 55.07421875 84.46484375 C50.71751991 88.05759794 46.46494704 91.76642903 42.21411133 95.48339844 C32.45799827 104 32.45799827 104 30 104 C29.9707573 99.66668104 29.95311983 95.33338779 29.9375 91 C29.92912109 89.77925781 29.92074219 88.55851562 29.91210938 87.30078125 C29.89529024 81.07770293 30.13253913 75.15514515 31 69 C31.30284563 65.56261453 31.45450001 62.13596479 31.5625 58.6875 C31.6562793 57.37749023 31.6562793 57.37749023 31.75195312 56.04101562 C31.9210765 49.07620742 29.72630321 45.46247642 25.4440918 40.09985352 C22.64930974 36.55521784 20.16922845 32.87344894 17.6953125 29.1015625 C17.24093307 28.41208023 16.78655365 27.72259796 16.31840515 27.01222229 C15.38892124 25.6000575 14.46085626 24.1869578 13.53417969 22.77294922 C12.11137808 20.60423672 10.68088512 18.44072898 9.25 16.27734375 C8.33547022 14.88572364 7.42139098 13.49380731 6.5078125 12.1015625 C5.87191696 11.14209213 5.87191696 11.14209213 5.22317505 10.16323853 C3.07871569 6.87540331 1.29625402 3.71075846 0 0 Z " fill="#020203" transform="translate(189,210)"/>
<path d="M0 0 C1.70267797 4.65445166 3.36507277 9.32144932 5 14 C5.41507812 15.18078125 5.83015625 16.3615625 6.2578125 17.578125 C6.62648438 18.68671875 6.99515625 19.7953125 7.375 20.9375 C7.88160156 22.43603516 7.88160156 22.43603516 8.3984375 23.96484375 C9.89288197 31.50499537 6.58421325 38.94734684 4.24609375 46.03125 C3.86695328 47.18113403 3.48781281 48.33101807 3.09718323 49.51574707 C2.29302978 51.94093158 1.48508028 54.36486027 0.67358398 56.78759766 C-0.14922985 59.2588019 -0.96080418 61.73377741 -1.76098633 64.21240234 C-2.92138457 67.80655619 -4.11495173 71.38814113 -5.31640625 74.96875 C-5.66570694 76.06997192 -6.01500763 77.17119385 -6.37489319 78.30578613 C-8.85033583 85.51238782 -11.78444436 89.60586762 -18 94 C-18.68449219 94.50811722 -19.36898437 95.01623444 -20.07421875 95.53974915 C-22.00357593 96.96130701 -23.96419648 98.32768547 -25.9375 99.6875 C-27.42590465 100.72508342 -28.91418208 101.76284937 -30.40234375 102.80078125 C-31.1588623 103.32623535 -31.91538086 103.85168945 -32.69482422 104.39306641 C-34.99292777 105.99506996 -37.28128012 107.61001733 -39.56640625 109.23046875 C-40.30963135 109.75745361 -41.05285645 110.28443848 -41.81860352 110.82739258 C-43.22175734 111.82287015 -44.62461386 112.81876697 -46.02709961 113.81518555 C-49.56815483 116.32034737 -53.13776603 118.77266223 -56.75 121.17431641 C-57.54921875 121.70602448 -58.3484375 122.23773254 -59.171875 122.78555298 C-59.77515625 123.1863205 -60.3784375 123.58708801 -61 124 C-61.30272538 114.82034011 -61.53293182 105.64242526 -61.67355824 96.45884323 C-61.74109585 92.19308588 -61.83248532 87.93076895 -61.98071289 83.66699219 C-62.12316944 79.54286876 -62.19992745 75.422027 -62.23340416 71.29563141 C-62.25721914 69.73085107 -62.30373221 68.16622822 -62.37449074 66.60286713 C-62.9311699 53.77999993 -62.9311699 53.77999993 -58.2149353 48.44226074 C-55.53254432 45.80055195 -52.67060897 43.45901163 -49.64679527 41.22039032 C-47.16900619 39.38417554 -44.81347199 37.40258853 -42.4375 35.4375 C-41.10525391 34.36822266 -41.10525391 34.36822266 -39.74609375 33.27734375 C-36.73680948 30.78173531 -33.86061346 28.16234857 -31 25.5 C-26.4244273 21.24196102 -21.69424681 17.25986899 -16.81640625 13.34765625 C-13.03450357 10.19519646 -9.44329368 6.85257939 -5.8828125 3.453125 C-2.212012 0 -2.212012 0 0 0 Z " fill="#020202" transform="translate(361,271)"/>
<path d="M0 0 C2.35284994 -0.03464506 4.70724465 -0.00315886 7.05885315 0.08074951 C8.34734665 0.07899719 9.63584015 0.07724487 10.96337891 0.07543945 C14.48141396 0.07200815 17.9944981 0.14232329 21.51138568 0.22632694 C25.19199374 0.30156342 28.87272724 0.30840818 32.5539856 0.32263184 C39.51762197 0.35986815 46.47898617 0.45824679 53.44162375 0.57882571 C61.37118012 0.71315581 69.30084755 0.77898192 77.23125923 0.83917093 C93.53804046 0.96446266 109.84169339 1.18443473 126.14698792 1.4430542 C126.14698792 10.6830542 126.14698792 19.9230542 126.14698792 29.4430542 C77.63698792 29.4430542 29.12698792 29.4430542 -20.85301208 29.4430542 C-18.21301208 24.1630542 -15.57301208 18.8830542 -12.85301208 13.4430542 C-11.27247292 10.0202005 -11.27247292 10.0202005 -9.66000366 6.52819824 C-6.96642843 2.0557284 -5.20116371 0.66251016 0 0 Z " fill="#010202" transform="translate(72.85301208496094,312.55694580078125)"/>
<path d="M0 0 C5.11235798 1.88417095 8.93636937 4.67512288 13.25 7.9375 C13.9821875 8.47568359 14.714375 9.01386719 15.46875 9.56835938 C16.16484375 10.09107422 16.8609375 10.61378906 17.578125 11.15234375 C18.52800293 11.8637854 18.52800293 11.8637854 19.49707031 12.58959961 C21 14 21 14 22 17 C21.23413086 19.2512207 21.23413086 19.2512207 19.96484375 21.92578125 C19.49264404 22.93390869 19.02044434 23.94203613 18.53393555 24.98071289 C17.74369995 26.62994751 17.74369995 26.62994751 16.9375 28.3125 C16.10618024 30.07987175 15.2748708 31.84724841 14.44404602 33.61485291 C13.56307111 35.48508305 12.67762519 37.3531382 11.79101562 39.22070312 C9.18678132 44.70943225 6.61723428 50.2143595 4.04794312 55.71951294 C3.18497328 57.56791199 2.32066242 59.4156801 1.45629883 61.26342773 C-5.48553455 76.1196918 -12.2336829 91.06303584 -19 106 C-33.19 106 -47.38 106 -62 106 C-60.68031435 102.70078587 -59.49900774 99.92997313 -57.77734375 96.90234375 C-57.10699097 95.72285156 -57.10699097 95.72285156 -56.4230957 94.51953125 C-55.93284912 93.66746094 -55.44260254 92.81539063 -54.9375 91.9375 C-54.15282349 90.56851563 -54.15282349 90.56851563 -53.35229492 89.171875 C-48.6060212 80.9463733 -43.68098856 72.83192008 -38.73028564 64.7286377 C-33.15736319 55.60534248 -27.69665208 46.42338219 -22.3125 37.1875 C-15.02917137 24.69540515 -7.5751044 12.31796851 0 0 Z " fill="#020304" transform="translate(139,194)"/>
<path d="M0 0 C-0.76483509 3.45968725 -1.5379946 6.91746588 -2.3125 10.375 C-2.52583984 11.34050781 -2.73917969 12.30601562 -2.95898438 13.30078125 C-3.61250808 16.20749862 -4.30221379 19.10362172 -5 22 C-5.2067334 22.94133789 -5.4134668 23.88267578 -5.62646484 24.85253906 C-7.25134507 31.40205629 -7.25134507 31.40205629 -10.38671875 33.90625 C-15.83532267 35.55555713 -21.29859311 37.08364029 -26.8125 38.5 C-33.49565729 40.23421305 -40.12651564 41.97058984 -46.65649414 44.21875 C-51.66054846 45.88694188 -56.74070822 47.30431624 -61.8125 48.75 C-63.48989258 49.24306641 -63.48989258 49.24306641 -65.20117188 49.74609375 C-66.27560547 50.05160156 -67.35003906 50.35710937 -68.45703125 50.671875 C-69.9107312 51.09098145 -69.9107312 51.09098145 -71.39379883 51.51855469 C-74.80325367 52.1483856 -76.74165331 51.79139439 -79.65991211 49.95605469 C-80.19366455 49.53227539 -80.72741699 49.10849609 -81.27734375 48.671875 C-81.87353516 48.20136719 -82.46972656 47.73085937 -83.08398438 47.24609375 C-83.69564453 46.75238281 -84.30730469 46.25867188 -84.9375 45.75 C-85.54529297 45.27175781 -86.15308594 44.79351562 -86.77929688 44.30078125 C-90.42629676 41.39734445 -93.76891915 38.3598336 -97 35 C-95.43026959 33.60949078 -93.84314278 32.23862221 -92.25 30.875 C-91.36828125 30.10929687 -90.4865625 29.34359375 -89.578125 28.5546875 C-81.48655316 22.32528562 -71.33551601 18.72648816 -61.875 15.125 C-60.76624512 14.70154297 -59.65749023 14.27808594 -58.51513672 13.84179688 C-50.46009886 10.81619628 -42.33993196 8.05843616 -34.125 5.5 C-33.08714355 5.17402832 -32.04928711 4.84805664 -30.97998047 4.51220703 C-20.70410232 1.40216249 -10.75844674 -0.42843372 0 0 Z " fill="#030404" transform="translate(250,147)"/>
<path d="M0 0 C2.63839829 0.09040382 5.27709457 0.17251333 7.91601562 0.24609375 C14.34640234 0.44334725 20.76555359 0.74341827 27.1875 1.125 C26.08404738 2.88267825 24.97748621 4.63840522 23.86962891 6.39331055 C23.25374908 7.37124069 22.63786926 8.34917084 22.00332642 9.35673523 C19.75479824 12.78466274 17.27565682 15.87336796 14.5625 18.9375 C13.65344878 19.98550619 12.74459354 21.0336824 11.8359375 22.08203125 C11.39507812 22.58323486 10.95421875 23.08443848 10.5 23.60083008 C9.17395494 25.1407295 7.91432077 26.72302041 6.6484375 28.3125 C0.02686534 35.88001104 -10.06726815 39.54834964 -19.8125 41.125 C-22.74677229 41.25879606 -25.6764905 41.2414763 -28.61328125 41.22265625 C-29.44965622 41.2212413 -30.28603119 41.21982635 -31.14775085 41.21836853 C-33.806871 41.21279184 -36.4659055 41.20024365 -39.125 41.1875 C-40.93294149 41.18248199 -42.7408843 41.17791961 -44.54882812 41.17382812 C-48.97008484 41.16283004 -53.39127793 41.1455815 -57.8125 41.125 C-53.7109474 34.5320323 -49.60790643 28.34775877 -44.44213867 22.53662109 C-42.38291477 20.04882763 -40.94247363 17.53557338 -39.50561523 14.6472168 C-30.31685677 -2.56298532 -17.8796066 -1.06613818 0 0 Z " fill="#020203" transform="translate(127.8125,354.875)"/>
<path d="M0 0 C2.8100346 1.79363911 4.50940468 3.01880935 6 6 C6.43023798 9.87214182 6.31669086 11.52496371 4.125 14.8125 C1.42055063 17.59649199 0.57733296 17.93464155 -3.3125 18.375 C-7 18 -7 18 -9.9375 16.0625 C-12.36291117 12.4611319 -12.68687004 10.35088516 -12.41015625 6.09375 C-12 4 -12 4 -10.5 1.4375 C-7.0164047 -0.5655673 -3.86776235 -0.78276143 0 0 Z " fill="#3AA0D4" transform="translate(426,137)"/>
<path d="M0 0 C1.65 0.33 3.3 0.66 5 1 C3.35 2.98 1.7 4.96 0 7 C-0.66 6.67 -1.32 6.34 -2 6 C-1.34 4.02 -0.68 2.04 0 0 Z " fill="#319CD0" transform="translate(338,225)"/>
<path d="M0 0 C0 3 0 3 -1.3125 4.38671875 C-2.875 5.59114583 -4.4375 6.79557292 -6 8 C-6.66 7.67 -7.32 7.34 -8 7 C-5.36 4.69 -2.72 2.38 0 0 Z " fill="#2F99CB" transform="translate(255,284)"/>
<path d="M0 0 C-1.39332574 3.36720387 -2.9789286 4.9859524 -6 7 C-5.37162381 3.35541809 -4.14650034 0 0 0 Z " fill="#3699CB" transform="translate(420,137)"/>
</svg>
